<svg xmlns="http://www.w3.org/2000/svg" width="297" height="100" viewBox="0 0 297 100" fill="none">
<path d="M126.54 40.1601H117.857V3.57129H150.676V10.9437H126.54V19.1898H149.808V26.5076H126.54V40.1601Z" fill="#1A1A1A"/>
<path d="M171.563 40.7062C161.665 40.7062 155.009 35.136 155.009 26.5076C155.009 17.7699 161.665 12.2543 171.563 12.2543C181.46 12.2543 188.117 17.7699 188.117 26.5076C188.117 35.136 181.46 40.7062 171.563 40.7062ZM171.563 33.4431C177.409 33.4431 179.492 31.3133 179.492 26.5076C179.492 21.7019 177.409 19.4629 171.563 19.4629C165.659 19.4629 163.633 21.7019 163.633 26.5076C163.633 31.3133 165.659 33.4431 171.563 33.4431Z" fill="#1A1A1A"/>
<path d="M208.853 40.7062C198.955 40.7062 192.299 35.136 192.299 26.5076C192.299 17.7699 198.955 12.2543 208.853 12.2543C218.751 12.2543 225.407 17.7699 225.407 26.5076C225.407 35.136 218.751 40.7062 208.853 40.7062ZM208.853 33.4431C214.699 33.4431 216.783 31.3133 216.783 26.5076C216.783 21.7019 214.699 19.4629 208.853 19.4629C202.949 19.4629 200.923 21.7019 200.923 26.5076C200.923 31.3133 202.949 33.4431 208.853 33.4431Z" fill="#1A1A1A"/>
<path d="M243.654 40.7062C234.625 40.7062 229.647 35.136 229.647 26.5076C229.647 17.7699 234.567 12.2543 243.191 12.2543C250.079 12.2543 253.61 15.4763 254.594 20.0636H255.115V3.57129H263.797V40.1601H255.693V32.5693H255.23C254.131 37.9757 250.31 40.7062 243.654 40.7062ZM238.445 26.5076C238.445 31.4771 241.05 33.2246 246.606 33.2246C252.105 33.2246 255.115 31.4225 255.115 26.6714V26.2345C255.115 21.4834 252.163 19.7359 246.606 19.7359C241.05 19.7359 238.445 21.4834 238.445 26.5076Z" fill="#1A1A1A"/>
<path d="M126.54 96.4284H117.857V59.785H125.903V67.2666H126.482C127.524 62.024 131.228 59.2389 138.058 59.2389C146.971 59.2389 151.949 64.8091 151.949 73.4921C151.949 82.1752 147.087 87.6908 138.347 87.6908C131.633 87.6908 127.929 84.578 126.945 79.7723H126.54V96.4284ZM126.54 73.8744C126.54 78.5709 129.549 80.2092 134.99 80.2092C140.547 80.2092 143.151 78.4617 143.151 73.4921C143.151 68.468 140.547 66.7751 135.048 66.7751C129.434 66.7751 126.54 68.5772 126.54 73.4375V73.8744Z" fill="#1A1A1A"/>
<path d="M172.75 87.6908C162.852 87.6908 156.196 82.1206 156.196 73.4921C156.196 64.7545 162.852 59.2389 172.75 59.2389C182.647 59.2389 189.304 64.7545 189.304 73.4921C189.304 82.1206 182.647 87.6908 172.75 87.6908ZM172.75 80.4276C178.596 80.4276 180.679 78.2978 180.679 73.4921C180.679 68.6864 178.596 66.4474 172.75 66.4474C166.846 66.4474 164.82 68.6864 164.82 73.4921C164.82 78.2978 166.846 80.4276 172.75 80.4276Z" fill="#1A1A1A"/>
<path d="M203.268 87.1447H194.586V59.785H202.631V67.0481H203.152C203.962 62.6247 207.03 59.2389 212.876 59.2389C219.359 59.2389 222.021 63.4439 222.021 68.7957V73.3283H213.339V70.4886C213.339 67.485 212.066 66.1744 208.535 66.1744C204.657 66.1744 203.268 67.8673 203.268 71.3077V87.1447Z" fill="#1A1A1A"/>
<path d="M247.334 87.1447H240.156C233.384 87.1447 229.275 84.1411 229.275 77.2603V66.5567H224.702V59.785H229.275V54.4878H237.957V59.785H247.334V66.5567H237.957V76.3319C237.957 79.0624 239.057 79.7723 242.124 79.7723H247.334V87.1447Z" fill="#1A1A1A"/>
<path d="M261.235 87.6908C254.984 87.6908 251.222 84.9603 251.222 80.373C251.222 76.3319 254.406 73.8198 260.599 73.2191L273.043 72.0177V70.9801C273.043 67.4304 271.365 66.4474 266.734 66.4474C262.335 66.4474 260.541 67.5396 260.541 70.6524V70.8709H251.801V70.707C251.801 63.9354 257.821 59.2389 267.371 59.2389C277.037 59.2389 281.61 63.9354 281.61 71.0893V87.1447H273.506V80.8645H273.043C271.712 85.1241 267.66 87.6908 261.235 87.6908ZM259.962 79.8269C259.962 81.3014 261.178 81.9021 263.724 81.9021C269.628 81.9021 272.812 80.5915 273.043 76.7141L262.972 77.8064C260.888 77.9702 259.962 78.5163 259.962 79.8269Z" fill="#1A1A1A"/>
<path d="M296.429 87.1447H287.747V50.5559H296.429V87.1447Z" fill="#1A1A1A"/>
<g clip-path="url(#clip0_316_192)">
<path d="M50 100C77.6142 100 100 77.6142 100 50C100 22.3858 77.6142 0 50 0C22.3858 0 0 22.3858 0 50C0 77.6142 22.3858 100 50 100Z" fill="#FD9827"/>
<path d="M99.9996 49.9999C99.9996 44.2062 99.0107 38.644 97.1984 33.469L76.5598 12.8306C76.5598 12.8306 62.5328 16.8288 60.3186 22.7214L51.2947 14.0339L46.0281 20.8997L39.141 14.0339L34.6023 20.8997L27.1293 14.0339H20.835L27.5387 37.6476C27.5387 41.48 25.2428 47.2245 25.2428 47.2245L31.6699 53.6813L32.2289 88.2526L43.5652 99.589C45.6991 99.8629 47.8483 100 49.9996 99.9999C77.6139 99.9999 99.9996 77.6142 99.9996 49.9999Z" fill="#EA7B0C"/>
<path d="M29.5957 48.311H42.5353V65.3032H29.5957V48.311Z" fill="#FFE780"/>
<path d="M36.0664 48.3105H42.5352V65.3027H36.0664V48.3105Z" fill="#FBBE2C"/>
<path d="M36.0656 89.5133C32.4924 89.5133 29.5957 86.6166 29.5957 83.0434V59.6396H42.5353V83.0436C42.5355 86.6168 39.6389 89.5133 36.0656 89.5133Z" fill="#605553"/>
<path d="M63.6201 48.311H76.5598V65.3032H63.6201V48.311Z" fill="#FFE780"/>
<path d="M70.0898 48.3105H76.5605V65.3027H70.0898V48.3105Z" fill="#FBBE2C"/>
<path d="M70.09 89.5133C66.5168 89.5133 63.6201 86.6166 63.6201 83.0434V59.6396H76.5598V83.0436C76.5598 86.6168 73.6633 89.5133 70.09 89.5133Z" fill="#605553"/>
<path d="M76.5605 59.6387V83.043C76.5605 86.6172 73.6641 89.5137 70.0898 89.5137V59.6387H76.5605Z" fill="#4C403F"/>
<path d="M76.5605 49.2876H65.7176C61.7551 49.2876 58.543 46.0753 58.543 42.113V28.3872C58.543 19.7954 65.508 12.8306 74.0996 12.8306H76.5605V49.2876ZM45.0014 14.0337V30.4399C45.0014 32.0579 43.6896 33.3696 42.0717 33.3696C40.4537 33.3696 39.142 32.0579 39.142 30.4399V14.0337H32.9896V30.4399C32.9896 32.0579 31.6779 33.3696 30.06 33.3696C28.442 33.3696 27.1303 32.0579 27.1303 30.4399V14.0337H20.8359V37.6474C20.8359 44.6153 26.4846 50.2642 33.4527 50.2642H38.6789C45.6469 50.2642 51.2957 44.6155 51.2957 37.6474V14.0337H45.0014Z" fill="#EEF9FF"/>
<path d="M51.2949 14.0332V37.6484C51.2949 43.2695 47.6172 48.0332 42.5352 49.6621C41.3203 50.0527 40.0234 50.2637 38.6777 50.2637H36.0664V14.0332H39.1426V30.4395C39.1426 32.0586 40.4531 33.3691 42.0703 33.3691H42.0723C43.6895 33.3691 45.002 32.0586 45.002 30.4395V14.0332H51.2949Z" fill="#D2EBFF"/>
<path d="M42.5352 59.6387V83.043C42.5352 86.6172 39.6387 89.5137 36.0664 89.5137V59.6387H42.5352Z" fill="#4C403F"/>
<path d="M76.5605 12.8301V49.2871H70.0898V13.3535C71.3979 13.0048 72.7459 12.8289 74.0996 12.8301H76.5605Z" fill="#D2EBFF"/>
</g>
<defs>
<clipPath id="clip0_316_192">
<rect width="100" height="100" fill="white"/>
</clipPath>
</defs>
</svg>